<?xml version="1.0" encoding="UTF-8"?>
<!-- Generator: visioncortex VTracer 0.6.12 -->
<svg version="1.1" xmlns="http://www.w3.org/2000/svg" width="905" height="1280" viewBox="0 0 905 1280">
<path d="M0 0 C298.65 0 597.3 0 905 0 C905 422.4 905 844.8 905 1280 C606.35 1280 307.7 1280 0 1280 C0 857.6 0 435.2 0 0 Z " fill="#FFFFFF" transform="translate(0,0)"/>
<path d="M0 0 C0.76 0.107 1.52 0.214 2.304 0.324 C27.645 3.976 52.542 13.94 75 26 C75.605 26.325 76.211 26.649 76.834 26.984 C85.627 31.749 93.912 37.119 102 43 C103.048 43.759 104.096 44.519 105.176 45.301 C114.043 51.916 122.047 59.322 130 67 C130.942 67.901 131.885 68.802 132.855 69.73 C138.725 75.455 143.96 81.538 149 88 C149.741 88.947 150.482 89.895 151.246 90.871 C191.271 143.105 207.29 207.96 199.035 273.078 C192.448 319.679 172.125 362.837 141 398 C140.218 398.893 139.435 399.787 138.629 400.707 C96.269 448.5 35.436 476.134 -28 480 C-87.432 482.574 -144.893 463.743 -191.496 426.961 C-194 425 -194 425 -197 423 C-197 422.34 -197 421.68 -197 421 C-197.589 420.738 -198.178 420.477 -198.785 420.207 C-201.118 418.936 -202.604 417.598 -204.438 415.688 C-204.993 415.114 -205.549 414.54 -206.121 413.949 C-206.741 413.306 -207.361 412.663 -208 412 C-210.447 409.53 -212.907 407.088 -215.438 404.703 C-231.454 389.371 -243.482 370.393 -254 351 C-254.164 350.697 -254.164 350.697 -254.996 349.167 C-265.623 329.349 -272.444 308.228 -277.188 286.312 C-277.343 285.601 -277.498 284.89 -277.657 284.158 C-278.149 281.778 -278.585 279.394 -279 277 C-279.18 275.972 -279.359 274.943 -279.544 273.884 C-281.33 262.315 -281.397 250.808 -281.375 239.125 C-281.375 238.083 -281.375 237.041 -281.374 235.967 C-281.343 220.253 -280.533 205.362 -277 190 C-276.621 188.184 -276.243 186.368 -275.867 184.551 C-267.549 145.836 -248.877 110.975 -223.529 80.82 C-222.46 79.548 -221.401 78.267 -220.35 76.981 C-219.818 76.339 -219.286 75.697 -218.738 75.035 C-218.26 74.453 -217.783 73.87 -217.29 73.27 C-216 72 -216 72 -214 72 C-213.773 71.423 -213.546 70.845 -213.312 70.25 C-211.671 67.436 -209.564 65.973 -207 64 C-206.67 63.34 -206.34 62.68 -206 62 C-205.34 62 -204.68 62 -204 62 C-204 61.34 -204 60.68 -204 60 C-201.03 57.239 -197.807 54.782 -194.621 52.276 C-193.064 51.05 -191.518 49.811 -189.973 48.57 C-167.31 30.68 -141.593 16.597 -114 8 C-113.121 7.722 -112.242 7.444 -111.336 7.158 C-75.174 -4.058 -37.294 -5.52 0 0 Z " fill="#81007F" transform="translate(476,165)"/>
<path d="M0 0 C8.383 6.619 13.257 14.295 16.098 24.656 C17.722 39.255 14.994 50.869 6.098 62.656 C5.502 63.467 4.907 64.278 4.293 65.113 C1.772 68.034 -0.929 70.173 -4.027 72.469 C-5.082 73.259 -6.136 74.049 -7.223 74.863 C-9.902 76.656 -9.902 76.656 -11.902 76.656 C-12.17 77.378 -12.439 78.1 -12.715 78.844 C-13.902 81.656 -13.902 81.656 -15.59 84.219 C-16.902 86.656 -16.902 86.656 -16.652 88.781 C-16.529 89.091 -16.529 89.091 -15.902 90.656 C-15.572 91.646 -15.242 92.636 -14.902 93.656 C-14.242 93.656 -13.582 93.656 -12.902 93.656 C-11.318 95.518 -9.854 97.382 -8.402 99.344 C-7.492 100.55 -6.582 101.755 -5.672 102.961 C-5.209 103.579 -4.745 104.198 -4.268 104.835 C2.044 113.252 8.551 121.491 15.206 129.639 C21.05 136.802 26.744 144.078 32.432 151.365 C37.775 158.206 43.17 164.995 48.66 171.719 C52.759 176.752 56.845 181.795 60.848 186.906 C61.247 187.414 61.247 187.414 63.27 189.984 C66.118 194.148 66.118 194.148 66.098 196.656 C62.39 201.206 59.069 201.558 53.482 202.325 C31.348 204.49 8.592 204.174 -9.59 189.906 C-9.971 189.535 -9.971 189.535 -11.902 187.656 C-11.902 186.996 -11.902 186.336 -11.902 185.656 C-12.562 185.656 -13.222 185.656 -13.902 185.656 C-18.066 180.518 -21.089 174.608 -23.902 168.656 C-25.028 170.345 -26.128 172.054 -27.129 173.82 C-34.775 187.275 -44.632 196.085 -59.529 200.631 C-75.334 204.784 -95.09 204.677 -110.902 200.656 C-111.892 199.996 -112.882 199.336 -113.902 198.656 C-114.501 194.932 -114.267 193.207 -112.172 190.043 C-111.766 189.598 -111.766 189.598 -109.715 187.344 C-108.786 186.292 -107.86 185.237 -106.938 184.18 C-106.443 183.615 -105.948 183.05 -105.438 182.468 C-102.704 179.242 -100.192 175.848 -97.652 172.469 C-92.575 165.754 -87.308 159.229 -81.927 152.756 C-77.619 147.56 -73.477 142.265 -69.391 136.895 C-66.638 133.291 -63.804 129.754 -60.965 126.219 C-57.012 121.293 -53.064 116.364 -49.152 111.406 C-48.701 110.835 -48.25 110.264 -47.786 109.676 C-44.183 105.082 -40.787 100.369 -37.461 95.57 C-36.947 94.939 -36.432 94.307 -35.902 93.656 C-35.242 93.656 -34.582 93.656 -33.902 93.656 C-32.666 91.62 -31.861 90.257 -32.027 87.844 C-32.859 85.764 -33.84 83.965 -34.965 82.031 C-36.902 78.656 -36.902 78.656 -36.902 76.656 C-37.626 76.413 -38.349 76.169 -39.094 75.918 C-49.962 71.035 -58.484 59.415 -62.902 48.656 C-66.755 37.045 -65.922 24.792 -60.902 13.656 C-54.898 3.685 -45.963 -4.056 -34.582 -6.93 C-22.022 -8.87 -10.421 -7.499 0 0 Z " fill="#FFFFFF" transform="translate(460.90234375,242.34375)"/>
<path d="M0 0 C32.608 0.406 58.294 14.925 80.919 37.556 C97.983 55.256 107.137 79.38 112.055 103.129 C113.523 100.381 114.511 97.793 115.281 94.777 C124.308 60.656 142.414 32.416 173.36 14.113 C190.686 4.05 209.054 -0.468 229.055 0.129 C231.212 2.286 230.424 6.33 230.442 9.229 C230.128 24.575 225.607 40.341 219.055 54.129 C218.768 54.736 218.48 55.343 218.185 55.969 C211.269 70.353 201.715 84.153 190.055 95.129 C189.395 95.129 188.735 95.129 188.055 95.129 C188.055 95.789 188.055 96.449 188.055 97.129 C186.716 98.422 186.716 98.422 184.828 99.887 C184.133 100.426 183.438 100.966 182.722 101.522 C181.965 102.093 181.209 102.665 180.43 103.254 C180.044 103.546 180.044 103.546 178.091 105.023 C153.333 123.454 153.333 123.454 141.184 121.719 C140.481 121.524 139.779 121.329 139.055 121.129 C138.882 115.414 139.377 110.421 140.742 104.879 C140.922 104.139 141.101 103.4 141.286 102.638 C147.206 79.245 162.735 56.607 183.578 43.949 C184.065 43.679 184.553 43.408 185.055 43.129 C183.313 47.127 180.666 50.425 178.055 53.879 C166.406 69.598 156.207 85.201 154.055 105.129 C154.715 105.459 155.375 105.789 156.055 106.129 C166.488 102.03 174.064 93.641 181.055 85.129 C181.632 84.451 182.21 83.773 182.805 83.074 C189.866 74.571 195.943 65.324 202.055 56.129 C202.372 55.653 202.372 55.653 203.977 53.242 C207.052 48.372 209.463 43.255 211.805 38.004 C212.099 37.346 212.393 36.689 212.697 36.011 C215.402 29.74 217.11 23.467 217.68 16.629 C217.754 15.773 217.829 14.917 217.906 14.035 C217.931 13.721 217.931 13.721 218.055 12.129 C189.421 14.707 168.254 26.759 149.68 48.969 C133.588 69.782 123.013 93.459 118.695 119.418 C118.484 120.313 118.272 121.207 118.055 122.129 C115.069 123.622 112.346 123.246 109.055 123.129 C108.395 122.799 107.735 122.469 107.055 122.129 C106.448 120.218 106.448 120.218 105.941 117.711 C105.748 116.793 105.555 115.876 105.356 114.93 C105.154 113.944 104.951 112.958 104.742 111.941 C101.469 96.913 96.282 83.676 89.055 70.129 C88.499 69.077 87.944 68.025 87.371 66.941 C74.651 44.002 54.408 23.954 29.086 15.777 C21.788 13.715 14.633 12.444 7.055 12.129 C9.555 39.11 24.881 63.085 42.615 83.058 C44.714 85.434 46.038 87.08 47.055 90.129 C47.715 90.129 48.375 90.129 49.055 90.129 C50.102 91.275 51.093 92.473 52.055 93.691 C56.697 99.161 62.78 104.808 70.055 106.129 C72.789 97.927 66.597 86.54 63.055 79.129 C58.203 69.484 52.204 60.982 45.627 52.437 C45.036 51.661 44.445 50.885 43.836 50.086 C43.568 49.74 43.568 49.74 42.213 47.991 C41.055 46.129 41.055 46.129 41.055 43.129 C64.419 61.249 80.954 82.602 85.758 112.375 C86.075 115.313 86.107 118.176 86.055 121.129 C72.459 123.188 59.818 114.573 49.284 106.952 C20.808 85.62 0.8 54.671 -4.484 19.207 C-5.245 13.21 -5.423 7.159 -4.945 1.129 C-3.945 0.129 -3.945 0.129 0 0 Z " fill="#FFFFFF" transform="translate(324.9453125,446.87109375)"/>
<path d="M0 0 C1.938 1.625 1.938 1.625 3 4 C2.996 6.914 2.996 6.914 2 10 C-0.35 11.591 -2.307 12.646 -4.875 13.75 C-6.337 14.43 -7.798 15.112 -9.258 15.797 C-10.03 16.152 -10.803 16.507 -11.599 16.873 C-27.017 24.109 -41.153 32.657 -54.37 43.408 C-56.91 45.459 -58.874 46.958 -62 48 C-62 48.66 -62 49.32 -62 50 C-63.398 51.375 -63.398 51.375 -65.375 53 C-100.962 83.539 -123.222 130.046 -127.83 176.453 C-130.228 212.397 -125.123 247.525 -109 280 C-108.69 280.637 -108.38 281.273 -108.06 281.929 C-99.717 298.912 -88.924 314.21 -76 328 C-75.718 328.302 -75.718 328.302 -74.289 329.828 C-66.161 338.416 -57.57 346.059 -48 353 C-47.719 353.206 -47.719 353.206 -46.297 354.248 C-31.682 364.828 -15.261 373.187 1.453 379.914 C6.647 382.128 6.647 382.128 7.938 385.312 C8 388 8 388 6.562 390.875 C4 393 4 393 0.324 392.832 C-4.031 392.148 -7.772 390.665 -11.75 388.812 C-12.446 388.496 -13.142 388.18 -13.859 387.855 C-15.912 386.916 -17.957 385.96 -20 385 C-21.036 384.523 -22.073 384.046 -23.141 383.555 C-40.876 375.075 -57.478 363.388 -71.844 350.004 C-73.847 348.142 -75.906 346.383 -78 344.625 C-113.859 313.222 -137.075 262.995 -141 216 C-141.055 215.395 -141.055 215.395 -141.332 212.336 C-145.83 157.279 -127.65 104.021 -92.441 61.82 C-89.521 58.447 -86.564 55.113 -83.562 51.812 C-83.302 51.524 -83.302 51.524 -81.985 50.062 C-80.699 48.668 -79.354 47.329 -78 46 C-77.34 46 -76.68 46 -76 46 C-76 45.34 -76 44.68 -76 44 C-74.52 42.489 -74.52 42.489 -72.48 40.758 C-71.746 40.134 -71.012 39.511 -70.255 38.868 C-20.725 -2.159 -20.725 -2.159 0 0 Z " fill="#FFFFFF" transform="translate(363,208)"/>
<path d="M0 0 C7.698 1.167 14.553 5.531 21.312 9.188 C22.827 9.988 24.341 10.789 25.855 11.59 C75.224 38.031 112.818 83.597 129.348 137.089 C131.959 145.997 133.782 155.038 135.312 164.188 C135.431 164.869 135.55 165.55 135.672 166.252 C144.538 219.064 128.879 273.46 98.262 316.523 C92.149 324.938 85.556 332.726 78.312 340.188 C77.822 340.698 77.332 341.208 76.828 341.734 C70.377 348.436 63.77 354.597 56.312 360.188 C55.509 360.808 54.706 361.428 53.879 362.066 C40.666 372.021 26.268 380.177 11.312 387.188 C10.672 387.496 10.032 387.805 9.373 388.123 C7.507 389.019 5.632 389.889 3.75 390.75 C2.676 391.246 1.602 391.743 0.496 392.254 C-3.338 393.378 -5.837 393.191 -9.688 392.188 C-11.843 388.955 -12.156 387.936 -11.688 384.188 C-9.591 381.617 -7.487 380.49 -4.434 379.277 C-3.588 378.933 -2.743 378.588 -1.872 378.233 C-0.965 377.867 -0.059 377.502 0.875 377.125 C21.67 368.448 40.131 356.721 57.312 342.188 C58.134 341.547 58.955 340.906 59.801 340.246 C97.583 309.28 119.169 258.894 124 211.25 C127.205 162.774 113.414 111.951 81.477 74.613 C81.119 74.213 81.119 74.213 79.312 72.188 C78.914 71.741 78.914 71.741 76.898 69.48 C75.392 67.805 73.879 66.136 72.355 64.477 C70.926 62.875 69.557 61.217 68.238 59.523 C66.312 57.188 66.312 57.188 63.312 55.188 C63.312 54.528 63.312 53.868 63.312 53.188 C62.732 52.93 62.152 52.672 61.555 52.406 C59.122 51.084 57.444 49.592 55.438 47.688 C39.897 33.625 20.138 21.261 0.5 13.875 C-2.991 12.552 -5.607 11.456 -7.688 8.188 C-7.617 5.295 -7.181 3.797 -5.359 1.547 C-3.688 0.188 -3.688 0.188 0 0 Z " fill="#FFFFFF" transform="translate(512.6875,207.8125)"/>
<path d="M0 0 C4.069 2.989 7.094 6.381 10.125 10.375 C11.096 11.633 12.068 12.891 13.039 14.148 C13.531 14.789 14.022 15.429 14.528 16.089 C16.829 19.077 19.165 22.038 21.5 25 C24.231 28.473 26.96 31.947 29.68 35.43 C34.577 41.694 39.533 47.904 44.562 54.062 C49.315 59.884 53.95 65.778 58.512 71.75 C61.296 75.394 64.112 79.013 66.938 82.625 C67.399 83.217 67.86 83.81 68.334 84.42 C70.43 87.094 72.51 89.682 75 92 C74.67 92.99 74.34 93.98 74 95 C35.112 96.149 35.112 96.149 20.789 82.965 C7.245 68.691 6.387 50.659 5 32 C-1.75 31 -1.75 31 -4 31 C-4.04 31.618 -4.079 32.236 -4.12 32.873 C-6.693 71.165 -6.693 71.165 -20.902 84.406 C-32.726 93.389 -46.297 95.506 -60.75 95.188 C-61.343 95.181 -61.343 95.181 -64.344 95.146 C-67.23 95.112 -70.115 95.063 -73 95 C-73 91.031 -71.125 89.212 -68.75 86.25 C-68.303 85.681 -67.857 85.113 -67.396 84.527 C-65.939 82.678 -64.471 80.838 -63 79 C-62.514 78.39 -62.027 77.78 -61.526 77.151 C-59.025 74.014 -56.516 70.882 -54.004 67.754 C-51.144 64.189 -48.318 60.598 -45.5 57 C-41.196 51.506 -36.847 46.05 -32.48 40.605 C-29.129 36.423 -25.805 32.219 -22.5 28 C-18.566 22.98 -14.607 17.981 -10.625 13 C-10.381 12.694 -10.381 12.694 -9.146 11.148 C-6.141 7.395 -3.089 3.685 0 0 Z " fill="#81007F" transform="translate(436,340)"/>
<path d="M0 0 C3.011 -0.031 3.011 -0.031 18.25 -0.188 C20.125 -0.215 21.999 -0.242 23.931 -0.27 C47.274 -0.47 47.274 -0.47 56.25 7.234 C64.036 15.09 65.691 23.241 66 34 C65.234 44.731 61.266 54.116 53.438 61.625 C42.855 70.203 31.226 69.5 18.312 69.25 C12.269 69.168 6.226 69.085 0 69 C0 46.23 0 23.46 0 0 Z " fill="#81007F" transform="translate(450,702)"/>
<path d="M0 0 C6.175 4.892 10.229 11.762 11.711 19.527 C12.658 29.979 10.783 38.659 4.586 47.215 C0.123 52.563 -5.429 58.066 -12.023 60.562 C-12.771 60.881 -13.519 61.199 -14.289 61.527 C-15.414 64.527 -15.414 64.527 -16.289 67.527 C-17.279 68.187 -18.269 68.847 -19.289 69.527 C-19.887 68.352 -20.485 67.176 -21.102 65.965 C-23.414 62.224 -25.762 60.372 -29.539 58.152 C-39.569 52.197 -45.642 44.131 -49.039 33.09 C-50.023 23.005 -49.238 14.242 -43.227 5.777 C-32.157 -7.507 -14.344 -9.228 0 0 Z " fill="#81007F" transform="translate(455.2890625,250.47265625)"/>
<path d="M0 0 C5.61 0 11.22 0 17 0 C17 9.9 17 19.8 17 30 C34.2 10.2 34.2 10.2 41 0 C43.602 -0.293 43.602 -0.293 46.625 -0.188 C47.126 -0.174 47.126 -0.174 49.664 -0.105 C50.435 -0.071 51.206 -0.036 52 0 C52 0.66 52 1.32 52 2 C51.34 2 50.68 2 50 2 C49.733 2.597 49.466 3.194 49.191 3.809 C47.975 6.046 46.796 7.344 44.938 9.062 C40.928 12.937 37.492 17.195 34.016 21.547 C32 24 32 24 30.172 25.516 C29 27 29 27 29.129 29.383 C30.078 32.235 31.278 34.368 32.938 36.875 C33.565 37.829 34.193 38.783 34.84 39.766 C35.196 40.299 35.196 40.299 37 43 C37.815 44.244 38.628 45.489 39.441 46.734 C43.657 53.161 47.916 59.431 52.82 65.363 C54 67 54 67 54 69 C38.245 70.5 38.245 70.5 33.668 67.441 C31.817 64.737 30.453 61.941 29 59 C27.505 56.555 25.96 54.146 24.404 51.739 C21.902 47.848 19.457 43.92 17 40 C17 49.57 17 59.14 17 69 C11.39 69 5.78 69 0 69 C0 46.23 0 23.46 0 0 Z " fill="#81007F" transform="translate(326,702)"/>
<path d="M0 0 C2.64 0 5.28 0 8 0 C10.967 7.322 13.891 14.65 16.625 22.062 C19.654 30.242 22.89 38.339 26.125 46.438 C26.385 47.09 26.645 47.742 26.912 48.414 C29.807 55.672 32.764 62.886 36 70 C30.06 70 24.12 70 18 70 C17.01 67.257 16.02 64.514 15 61.688 C14.687 60.827 14.374 59.967 14.051 59.081 C13.807 58.398 13.564 57.715 13.312 57.012 C13.061 56.315 12.81 55.619 12.551 54.901 C12 53 12 53 12 50 C3.75 50 -4.5 50 -13 50 C-13.66 52.97 -14.32 55.94 -15 59 C-15.663 61.036 -16.365 63.061 -17.125 65.062 C-17.302 65.532 -17.302 65.532 -18.195 67.91 C-18.328 68.255 -18.328 68.255 -19 70 C-21.97 70 -24.94 70 -28 70 C-27.362 66.2 -26.26 62.912 -24.77 59.363 C-24.303 58.244 -23.836 57.125 -23.355 55.972 C-22.846 54.764 -22.337 53.557 -21.812 52.312 C-21.008 50.391 -20.206 48.468 -19.404 46.546 C-18.837 45.188 -18.269 43.83 -17.701 42.473 C-15.49 37.188 -13.303 31.893 -11.125 26.594 C-10.806 25.818 -10.487 25.041 -10.158 24.242 C-8.897 21.171 -7.636 18.1 -6.375 15.028 C-5.497 12.89 -4.618 10.752 -3.738 8.613 C-3.607 8.293 -3.607 8.293 -2.941 6.67 C-2.014 4.415 -1.091 2.182 0 0 Z " fill="#81007F" transform="translate(265,701)"/>
<path d="M0 0 C2.348 -0.215 2.348 -0.215 5 0 C6.371 1.434 6.371 1.434 7.438 3.438 C7.851 4.166 8.265 4.894 8.691 5.645 C9.123 6.422 9.555 7.199 10 8 C14.787 15.934 19.535 21.278 27.812 25.562 C30.899 27.179 31.822 27.68 33.562 30.812 C33.707 31.534 33.851 32.256 34 33 C31.809 35.405 29.71 36.794 26.812 38.25 C16.124 44.072 10.017 51.747 6.48 63.312 C6.401 63.591 6.401 63.591 6 65 C5.175 65.165 5.175 65.165 1 66 C-2.125 62.391 -4.073 58.946 -5.938 54.562 C-10.287 44.99 -14.436 41.343 -24 37 C-27.125 35.5 -27.125 35.5 -29 34 C-29.438 31.438 -29.438 31.438 -29 29 C-26.762 26.762 -25.408 26.4 -22.438 25.438 C-10.863 20.858 -5.47 10.478 0 0 Z " fill="#FFFFFF" transform="translate(435,431)"/>
<path d="M0 0 C6.632 3.083 11.22 7.269 14.375 13.879 C16.766 25.183 17.122 37.282 11.438 47.691 C7.785 53.147 3.219 56.077 -2.938 58.129 C-5.491 58.225 -8.01 58.268 -10.562 58.254 C-11.256 58.258 -11.95 58.262 -12.664 58.266 C-17.811 58.256 -17.811 58.256 -18.938 57.129 C-19.031 55.349 -19.055 53.565 -19.051 51.783 C-19.051 50.642 -19.051 49.501 -19.051 48.325 C-19.046 47.083 -19.04 45.842 -19.035 44.562 C-19.034 43.299 -19.032 42.035 -19.031 40.733 C-19.026 37.368 -19.017 34.002 -19.006 30.637 C-18.996 27.205 -18.991 23.774 -18.986 20.342 C-18.975 13.604 -18.959 6.867 -18.938 0.129 C-13.605 -2.537 -5.552 -1.647 0 0 Z " fill="#FFFFFF" transform="translate(483.9375,707.87109375)"/>
<path d="M0 0 C12.87 0 25.74 0 39 0 C39 2.64 39 5.28 39 8 C31.252 8.122 23.708 7.811 16 7 C16 14.26 16 21.52 16 29 C23.59 29 31.18 29 39 29 C39 31.64 39 34.28 39 37 C36.667 37.027 34.334 37.047 32 37.062 C31.35 37.068 31.35 37.068 28.062 37.098 C23.917 37.135 20.239 36.53 16 36 C16 44.58 16 53.16 16 62 C23.59 61.67 31.18 61.34 39 61 C39 63.64 39 66.28 39 69 C26.13 69 13.26 69 0 69 C0 46.23 0 23.46 0 0 Z " fill="#81007F" transform="translate(544,702)"/>
<path d="M0 0 C5.94 0 11.88 0 18 0 C19.868 4.981 21.728 9.962 23.559 14.957 C23.789 15.586 24.019 16.214 24.257 16.861 C24.74 18.18 25.223 19.498 25.706 20.817 C26.432 22.798 27.158 24.779 27.885 26.76 C30.601 34.169 33.308 41.582 36 49 C39.519 41.511 42.639 33.95 45.5 26.188 C45.887 25.146 46.275 24.104 46.674 23.031 C49.513 15.377 52.301 7.705 55 0 C57.97 0 60.94 0 64 0 C61.696 7.308 58.843 14.278 55.812 21.312 C49.098 37.048 42.572 52.82 37 69 C33.7 69 30.4 69 27 69 C26.68 68.148 26.359 67.296 26.029 66.418 C19.075 47.976 11.905 29.648 4.32 11.456 C4.03 10.759 3.74 10.063 3.441 9.345 C2.656 7.461 1.868 5.578 1.079 3.695 C0 1 0 1 0 0 Z " fill="#81007F" transform="translate(606,702)"/>
<path d="M0 0 C5.61 0 11.22 0 17 0 C20.477 8.008 23.48 16.078 26.327 24.326 C29.074 32.273 32.005 40.144 35 48 C37.579 45.421 38.329 42.958 39.645 39.551 C39.896 38.901 40.148 38.251 40.407 37.582 C40.942 36.199 41.474 34.814 42.003 33.428 C42.793 31.363 43.592 29.301 44.393 27.24 C47.866 18.243 51.031 9.176 54 0 C56.97 0 59.94 0 63 0 C60.891 6.607 58.413 12.939 55.688 19.312 C51.045 30.297 46.682 41.381 42.375 52.5 C42.058 53.319 41.74 54.139 41.413 54.983 C39.605 59.654 37.801 64.326 36 69 C33.03 69 30.06 69 27 69 C23.361 62.153 20.684 55.079 18 47.812 C13.523 35.785 8.734 23.914 3.709 12.105 C3.466 11.529 3.466 11.529 2.238 8.617 C2.022 8.11 2.022 8.11 0.927 5.542 C0 3 0 3 0 0 Z " fill="#81007F" transform="translate(159,702)"/>
<path d="M0 0 C5.61 0 11.22 0 17 0 C17 22.77 17 45.54 17 69 C11.39 69 5.78 69 0 69 C0 46.23 0 23.46 0 0 Z " fill="#81007F" transform="translate(696,702)"/>
<path d="M0 0 C12.423 0 12.423 0 16 3 C18 5 18 5 18.312 8.375 C17.993 12.086 17.522 13.372 15 16 C15.825 16.701 16.65 17.403 17.5 18.125 C20 21 20 21 20.625 23.938 C19.751 28.22 18.088 29.912 15 33 C12 34 12 34 0 34 C0 22.78 0 11.56 0 0 Z " fill="#81007F" transform="translate(576,819)"/>
<path d="M0 0 C0.66 0 1.32 0 2 0 C3.508 1.68 3.508 1.68 5.125 3.875 C5.664 4.594 6.203 5.314 6.758 6.055 C8 8 8 8 8 10 C8.557 10.227 9.114 10.454 9.688 10.688 C12.628 12.356 14.65 14.588 17 17 C16.59 17.362 16.59 17.362 14.516 19.195 C13.427 20.172 12.338 21.148 11.25 22.125 C10.981 22.362 10.981 22.362 9.617 23.562 C6.077 26.757 3.489 29.929 1 34 C-1.224 31.887 -2.989 29.695 -4.75 27.188 C-7.712 23.162 -11.074 20.066 -15 17 C-14.319 16.34 -13.639 15.68 -12.938 15 C-8.811 10.873 -4.783 6.525 -1.414 1.754 C-0.947 1.175 -0.481 0.596 0 0 Z " fill="#81007F" transform="translate(437,446)"/>
<path d="M0 0 C13.786 0 13.786 0 18.875 4.75 C20.52 8.04 20.446 10.371 20 14 C17.921 17.226 16.2 18.867 13 21 C13.577 21.771 14.155 22.542 14.75 23.336 C15.493 24.339 16.235 25.342 17 26.375 C17.371 26.874 17.371 26.874 19.25 29.398 C21 32 21 32 21 34 C18.754 33.875 18.754 33.875 16 33 C13.902 30.312 13.902 30.312 11.938 27 C9.965 23.688 9.965 23.688 8 21 C6.68 20.67 5.36 20.34 4 20 C4 24.29 4 28.58 4 33 C3.34 33.165 3.34 33.165 0 34 C0 22.78 0 11.56 0 0 Z " fill="#81007F" transform="translate(450,819)"/>
<path d="M0 0 C12.862 0 12.862 0 17 3 C19.598 6.018 20 7.496 20 11.5 C18.828 15.603 17.13 17.191 14 20 C14 23.037 15.729 24.582 17.5 27 C21 31.778 21 31.778 21 34 C18.754 33.84 18.754 33.84 16 33 C13.902 30.566 13.902 30.566 11.938 27.562 C9.328 23.599 8.356 22.178 4 20 C4 24.29 4 28.58 4 33 C3.34 33.165 3.34 33.165 0 34 C0 22.78 0 11.56 0 0 Z " fill="#81007F" transform="translate(252,819)"/>
<path d="M0 0 C4.578 3.924 8.958 7.8 13.188 12.062 C13.695 12.566 14.202 13.069 14.725 13.588 C17.049 15.918 19.183 18.229 21.238 20.809 C23 23 23 23 25 24 C25 16.08 25 8.16 25 0 C26.32 0.33 27.64 0.66 29 1 C29 11.89 29 22.78 29 34 C25.56 32.28 24.2 31.419 21.758 28.734 C21.166 28.091 20.574 27.448 19.965 26.785 C19.358 26.114 18.751 25.442 18.125 24.75 C16.92 23.431 15.715 22.114 14.508 20.797 C14.243 20.505 14.243 20.505 12.903 19.026 C10.333 16.289 7.655 13.655 5 11 C4.67 18.26 4.34 25.52 4 33 C3.34 33.165 3.34 33.165 0 34 C0 22.78 0 11.56 0 0 Z " fill="#81007F" transform="translate(191,819)"/>
<path d="M0 0 C7.441 6.378 14.168 12.837 20.457 20.336 C22 22 22 22 25 24 C25 16.08 25 8.16 25 0 C26.32 0.33 27.64 0.66 29 1 C29 11.89 29 22.78 29 34 C21.847 30.424 16.861 23.995 11.738 17.957 C9.594 15.543 7.283 13.283 5 11 C4.67 18.26 4.34 25.52 4 33 C3.34 33.165 3.34 33.165 0 34 C0 22.78 0 11.56 0 0 Z " fill="#81007F" transform="translate(62,819)"/>
<path d="M0 0 C5.888 0.052 10.211 0.704 14.938 4.312 C19.613 9.227 20.238 13.253 20.152 19.809 C19.745 24.56 17.964 27.34 14.562 30.562 C9.731 33.783 5.99 34.572 0.188 34.5 C-0.962 34.494 -2.112 34.487 -3.297 34.48 C-6.062 34.312 -6.062 34.312 -7.062 33.312 C-7.163 30.949 -7.202 28.614 -7.195 26.25 C-7.196 25.544 -7.197 24.837 -7.198 24.109 C-7.199 22.613 -7.197 21.116 -7.193 19.62 C-7.188 17.322 -7.193 15.024 -7.199 12.727 C-7.199 11.276 -7.197 9.826 -7.195 8.375 C-7.197 7.683 -7.199 6.992 -7.201 6.279 C-7.17 -0.095 -6.219 0.136 0 0 Z M-3.062 5.312 C-3.162 7.081 -3.193 8.854 -3.195 10.625 C-3.197 11.7 -3.198 12.775 -3.199 13.883 C-3.195 15.015 -3.191 16.146 -3.188 17.312 C-3.191 18.444 -3.195 19.576 -3.199 20.742 C-3.198 21.817 -3.197 22.892 -3.195 24 C-3.194 24.994 -3.193 25.988 -3.192 27.012 C-3.062 29.312 -3.062 29.312 -2.062 30.312 C3.534 30.692 7.116 30.49 11.938 27.312 C14.433 25.08 15.744 23.507 16.285 20.164 C16.466 15.42 16.047 12.088 12.938 8.312 C9.531 5.331 0.95 1.3 -3.062 5.312 Z " fill="#81007F" transform="translate(802.0625,818.6875)"/>
<path d="M0 0 C0.66 0 1.32 0 2 0 C3.998 4.519 5.992 9.039 7.981 13.562 C8.659 15.101 9.338 16.639 10.019 18.177 C10.995 20.385 11.967 22.595 12.938 24.805 C13.244 25.494 13.55 26.184 13.865 26.895 C16 31.772 16 31.772 16 34 C14.35 33.67 12.7 33.34 11 33 C10.01 30.03 9.02 27.06 8 24 C3.38 24.33 -1.24 24.66 -6 25 C-6.66 26.485 -6.66 26.485 -10 34 C-11.32 34 -12.64 34 -14 34 C-13.344 29.697 -11.853 26.123 -10.059 22.168 C-9.771 21.531 -9.484 20.895 -9.188 20.239 C-8.276 18.219 -7.357 16.203 -6.438 14.188 C-5.815 12.813 -5.194 11.439 -4.572 10.064 C-3.054 6.707 -1.529 3.353 0 0 Z " fill="#81007F" transform="translate(290,819)"/>
<path d="M0 0 C0.66 0 1.32 0 2 0 C4.001 4.357 5.995 8.717 7.981 13.08 C8.658 14.564 9.337 16.047 10.019 17.529 C10.997 19.659 11.968 21.792 12.938 23.926 C13.244 24.588 13.55 25.251 13.865 25.934 C15.165 28.81 16 30.804 16 34 C14.68 34 13.36 34 12 34 C10.68 31.03 9.36 28.06 8 25 C5.69 24.835 5.69 24.835 -6 24 C-6.99 26.97 -7.98 29.94 -9 33 C-9.825 33.165 -9.825 33.165 -14 34 C-11.635 26.389 -8.564 19.209 -5.312 11.938 C-4.801 10.786 -4.29 9.634 -3.764 8.447 C-2.513 5.63 -1.258 2.814 0 0 Z " fill="#81007F" transform="translate(838,819)"/>
<path d="M0 0 C3.181 2.658 4.468 5.823 6.137 9.566 C6.421 10.201 6.705 10.836 6.998 11.49 C7.596 12.827 8.19 14.166 8.781 15.507 C9.687 17.562 10.605 19.612 11.525 21.662 C16 31.71 16 31.71 16 34 C14.35 33.67 12.7 33.34 11 33 C10.01 30.03 9.02 27.06 8 24 C3.38 24.33 -1.24 24.66 -6 25 C-6.66 26.485 -6.66 26.485 -10 34 C-11.32 34 -12.64 34 -14 34 C-13.344 29.697 -11.853 26.123 -10.059 22.168 C-9.771 21.531 -9.484 20.895 -9.188 20.239 C-8.276 18.219 -7.357 16.203 -6.438 14.188 C-5.815 12.813 -5.194 11.439 -4.572 10.064 C-3.054 6.707 -1.529 3.353 0 0 Z " fill="#81007F" transform="translate(645,819)"/>
<path d="M0 0 C0.66 0 1.32 0 2 0 C4.001 4.357 5.995 8.717 7.981 13.08 C8.658 14.564 9.337 16.047 10.019 17.529 C10.997 19.659 11.968 21.792 12.938 23.926 C13.244 24.588 13.55 25.251 13.865 25.934 C15.165 28.81 16 30.804 16 34 C14.68 34 13.36 34 12 34 C10.68 31.03 9.36 28.06 8 25 C5.69 24.835 5.69 24.835 -6 24 C-6.99 26.97 -7.98 29.94 -9 33 C-9.825 33.165 -9.825 33.165 -14 34 C-11.635 26.389 -8.564 19.209 -5.312 11.938 C-4.801 10.786 -4.29 9.634 -3.764 8.447 C-2.513 5.63 -1.258 2.814 0 0 Z " fill="#81007F" transform="translate(554,819)"/>
<path d="M0 0 C0.99 0 1.98 0 3 0 C3.33 4.29 3.66 8.58 4 13 C9.61 13 15.22 13 21 13 C21.33 8.71 21.66 4.42 22 0 C23.32 0.33 24.64 0.66 26 1 C26 11.56 26 22.12 26 33 C25.34 33.165 25.34 33.165 22 34 C22 28.72 22 23.44 22 18 C15.73 18 9.46 18 3 18 C3 23.28 3 28.56 3 34 C1.68 33.67 0.36 33.34 -1 33 C-1.025 28.461 -1.043 23.922 -1.055 19.383 C-1.06 17.838 -1.067 16.293 -1.075 14.747 C-1.088 12.531 -1.093 10.314 -1.098 8.098 C-1.103 7.403 -1.108 6.708 -1.113 5.992 C-1.113 4.328 -1.062 2.663 -1 1 C-0.67 0.67 -0.34 0.34 0 0 Z " fill="#81007F" transform="translate(509,819)"/>
<path d="M0 0 C0.749 0.005 1.498 0.01 2.269 0.016 C3.078 0.019 3.887 0.022 4.72 0.026 C5.571 0.034 6.421 0.042 7.297 0.051 C8.151 0.056 9.005 0.06 9.885 0.065 C12.001 0.077 14.118 0.094 16.234 0.114 C16.564 1.434 16.894 2.754 17.234 4.114 C12.284 4.444 7.334 4.774 2.234 5.114 C2.234 7.754 2.234 10.394 2.234 13.114 C4.544 13.279 4.544 13.279 16.234 14.114 C15.904 15.434 15.574 16.754 15.234 18.114 C10.614 18.114 5.994 18.114 1.234 18.114 C1.564 21.744 1.894 25.374 2.234 29.114 C7.184 29.444 12.134 29.774 17.234 30.114 C16.904 31.434 16.574 32.754 16.234 34.114 C13.255 34.14 10.276 34.16 7.297 34.176 C6.446 34.184 5.596 34.193 4.72 34.201 C3.912 34.205 3.103 34.208 2.269 34.211 C1.52 34.216 0.772 34.222 0 34.227 C-1.766 34.114 -1.766 34.114 -2.766 33.114 C-2.867 30.75 -2.906 28.415 -2.899 26.051 C-2.9 25.345 -2.901 24.638 -2.902 23.91 C-2.902 22.414 -2.9 20.917 -2.896 19.421 C-2.891 17.123 -2.896 14.826 -2.903 12.528 C-2.902 11.077 -2.901 9.627 -2.899 8.176 C-2.901 7.484 -2.903 6.793 -2.905 6.08 C-2.876 0.185 -2.876 0.185 0 0 Z " fill="#81007F" transform="translate(36.765869140625,818.886474609375)"/>
<path d="M0 0 C0.749 0.005 1.498 0.01 2.269 0.016 C3.078 0.019 3.887 0.022 4.72 0.026 C5.571 0.034 6.421 0.042 7.297 0.051 C8.151 0.056 9.005 0.06 9.885 0.065 C12.001 0.077 14.118 0.094 16.234 0.114 C16.234 1.434 16.234 2.754 16.234 4.114 C11.614 4.444 6.994 4.774 2.234 5.114 C2.234 7.754 2.234 10.394 2.234 13.114 C6.524 13.444 10.814 13.774 15.234 14.114 C15.234 15.434 15.234 16.754 15.234 18.114 C10.614 18.114 5.994 18.114 1.234 18.114 C1.564 21.744 1.894 25.374 2.234 29.114 C4.544 29.279 4.544 29.279 16.234 30.114 C16.234 31.434 16.234 32.754 16.234 34.114 C13.255 34.14 10.276 34.16 7.297 34.176 C6.446 34.184 5.596 34.193 4.72 34.201 C3.912 34.205 3.103 34.208 2.269 34.211 C1.52 34.216 0.772 34.222 0 34.227 C-1.766 34.114 -1.766 34.114 -2.766 33.114 C-2.867 30.75 -2.906 28.415 -2.899 26.051 C-2.9 25.345 -2.901 24.638 -2.902 23.91 C-2.902 22.414 -2.9 20.917 -2.896 19.421 C-2.891 17.123 -2.896 14.826 -2.903 12.528 C-2.902 11.077 -2.901 9.627 -2.899 8.176 C-2.901 7.484 -2.903 6.793 -2.905 6.08 C-2.876 0.185 -2.876 0.185 0 0 Z " fill="#81007F" transform="translate(165.765869140625,818.886474609375)"/>
<path d="M0 0 C5.94 0 11.88 0 18 0 C18.33 1.32 18.66 2.64 19 4 C14.05 4 9.1 4 4 4 C4 7.3 4 10.6 4 14 C8.62 14 13.24 14 18 14 C17.67 15.32 17.34 16.64 17 18 C12.71 18 8.42 18 4 18 C4 21.96 4 25.92 4 30 C8.95 30 13.9 30 19 30 C19 31.32 19 32.64 19 34 C12.73 34 6.46 34 0 34 C0 22.78 0 11.56 0 0 Z " fill="#81007F" transform="translate(423,819)"/>
<path d="M0 0 C0.99 0 1.98 0 3 0 C3.025 0.736 3.05 1.473 3.076 2.231 C3.192 5.571 3.315 8.911 3.438 12.25 C3.477 13.409 3.516 14.568 3.557 15.762 C3.599 16.877 3.64 17.992 3.684 19.141 C3.72 20.167 3.757 21.193 3.795 22.251 C3.973 24.636 4.328 26.713 5 29 C6.624 29.081 8.25 29.139 9.875 29.188 C10.78 29.222 11.685 29.257 12.617 29.293 C13.404 29.196 14.19 29.1 15 29 C17.292 25.562 17.295 24.079 17.414 20.02 C17.453 18.856 17.491 17.693 17.531 16.494 C17.547 15.887 17.547 15.887 17.625 12.812 C17.664 11.586 17.702 10.359 17.742 9.096 C17.837 6.064 17.922 3.032 18 0 C19.32 0.33 20.64 0.66 22 1 C22.087 5.062 22.14 9.124 22.188 13.188 C22.213 14.338 22.238 15.488 22.264 16.674 C22.273 17.786 22.283 18.897 22.293 20.043 C22.309 21.064 22.324 22.085 22.341 23.137 C21.855 27.222 20.08 29.795 17.375 32.812 C13.642 34.679 10.084 34.656 6 34 C1.879 31.633 0.448 29.434 -1 25 C-1.243 22.245 -1.243 22.245 -1.23 19.297 C-1.229 18.235 -1.227 17.173 -1.225 16.078 C-1.212 14.98 -1.2 13.882 -1.188 12.75 C-1.187 11.636 -1.186 10.523 -1.186 9.375 C-1.14 1.14 -1.14 1.14 0 0 Z " fill="#81007F" transform="translate(705,819)"/>
<path d="M0 0 C2.379 1.454 4.005 3.005 6 5 C5.67 5.99 5.34 6.98 5 8 C2.133 7.427 1.139 7.139 -1 5 C-3.688 4.73 -6.291 4.913 -9 5 C-8.659 7.898 -8.445 9.527 -7 12 C-4.552 13.6 -2.106 14.732 0.59 15.859 C3.872 17.412 5.557 18.861 6.875 22.25 C7.053 26.155 5.859 28.602 4 32 C1.145 34.432 -2.275 34.476 -5.965 34.387 C-9.7 33.677 -11.433 31.755 -14 29 C-14.875 26.688 -14.875 26.688 -15 25 C-14.01 24.67 -13.02 24.34 -12 24 C-11.319 24.825 -10.639 25.65 -9.938 26.5 C-7 29 -7 29 -3.25 29.375 C0 29 0 29 1 28 C1.312 25.125 1.312 25.125 1 22 C-0.765 20.087 -2.593 19.186 -4.941 18.109 C-8.281 16.56 -10.618 15.44 -13.062 12.625 C-14.283 9.208 -14.169 7.434 -13 4 C-9.393 -0.153 -5.321 -1.255 0 0 Z " fill="#81007F" transform="translate(409,819)"/>
<path d="M0 0 C1.32 0.33 2.64 0.66 4 1 C4.02 1.777 4.04 2.554 4.06 3.355 C4.155 6.862 4.265 10.368 4.375 13.875 C4.406 15.098 4.437 16.322 4.469 17.582 C4.507 18.749 4.546 19.915 4.586 21.117 C4.617 22.196 4.649 23.275 4.681 24.386 C5 27 5 27 7 29 C8.875 29.301 8.875 29.301 11 29.312 C11.351 29.321 11.351 29.321 13.125 29.363 C13.744 29.243 14.363 29.124 15 29 C17.259 25.612 17.293 24.226 17.414 20.238 C17.453 19.12 17.491 18.002 17.531 16.85 C17.562 15.682 17.593 14.515 17.625 13.312 C17.664 12.134 17.702 10.955 17.742 9.74 C17.837 6.827 17.922 3.914 18 1 C19.32 0.67 20.64 0.34 22 0 C22.087 4.396 22.14 8.791 22.188 13.188 C22.213 14.433 22.238 15.679 22.264 16.963 C22.273 18.165 22.283 19.367 22.293 20.605 C22.309 21.71 22.324 22.815 22.341 23.954 C21.957 27.385 21.016 29.228 19 32 C15.968 34.359 12.739 34.359 8.965 34.254 C6.044 33.876 4.257 32.859 2 31 C-0.23 27.586 -0.233 24.723 -0.195 20.703 C-0.189 19.498 -0.182 18.293 -0.176 17.051 C-0.167 16.424 -0.167 16.424 -0.125 13.25 C-0.116 11.98 -0.107 10.711 -0.098 9.402 C-0.074 6.268 -0.041 3.134 0 0 Z " fill="#81007F" transform="translate(350,819)"/>
<path d="M0 0 C1.32 0.33 2.64 0.66 4 1 C4.02 1.777 4.04 2.554 4.06 3.355 C4.155 6.862 4.265 10.368 4.375 13.875 C4.406 15.098 4.437 16.322 4.469 17.582 C4.507 18.749 4.546 19.915 4.586 21.117 C4.617 22.196 4.649 23.275 4.681 24.386 C5 27 5 27 7 29 C8.875 29.266 8.875 29.266 11 29.25 C11.701 29.255 12.403 29.26 13.125 29.266 C15 29 15 29 17 27 C17.319 24.386 17.319 24.386 17.414 21.117 C17.453 19.951 17.491 18.784 17.531 17.582 C17.562 16.359 17.593 15.135 17.625 13.875 C17.664 12.644 17.702 11.413 17.742 10.145 C17.837 7.097 17.922 4.048 18 1 C19.32 0.67 20.64 0.34 22 0 C22.087 4.396 22.14 8.791 22.188 13.188 C22.213 14.433 22.238 15.679 22.264 16.963 C22.273 18.165 22.283 19.367 22.293 20.605 C22.309 21.71 22.324 22.815 22.341 23.954 C21.957 27.385 21.016 29.228 19 32 C15.968 34.359 12.739 34.359 8.965 34.254 C6.044 33.876 4.257 32.859 2 31 C-0.23 27.586 -0.233 24.723 -0.195 20.703 C-0.189 19.498 -0.182 18.293 -0.176 17.051 C-0.167 16.424 -0.167 16.424 -0.125 13.25 C-0.116 11.98 -0.107 10.711 -0.098 9.402 C-0.074 6.268 -0.041 3.134 0 0 Z " fill="#81007F" transform="translate(133,819)"/>
<path d="M0 0 C3.062 1.25 3.062 1.25 5 3 C5.812 5.188 5.812 5.188 6 7 C3 7 3 7 1.312 6 C-2.998 4.136 -7.423 4.623 -11.875 5.688 C-14 7 -14 7 -15.312 9 C-16.54 14.355 -16.54 19.645 -15.312 25 C-13.475 27.8 -12.268 28.235 -9 29 C-0.992 29.661 -0.992 29.661 3 27 C3.99 27 4.98 27 6 27 C5.638 29.623 5.243 30.772 3.285 32.609 C-0.86 35.132 -5.312 34.584 -10 34 C-14.21 32.705 -16.656 30.423 -19.438 27 C-21.943 21.979 -21.75 16.449 -21 11 C-16.487 1.64 -9.743 -0.858 0 0 Z " fill="#81007F" transform="translate(119,819)"/>
<path d="M0 0 C1.839 0.179 1.839 0.179 4 1 C5.372 3.225 5.372 3.225 6.578 6.129 C7.016 7.163 7.455 8.198 7.906 9.264 C8.35 10.352 8.793 11.441 9.25 12.562 C9.709 13.655 10.168 14.747 10.641 15.873 C11.774 18.577 12.893 21.285 14 24 C15.677 21.485 16.751 19.388 17.875 16.621 C18.22 15.783 18.566 14.944 18.922 14.08 C19.642 12.315 20.361 10.549 21.078 8.783 C21.424 7.946 21.769 7.109 22.125 6.246 C22.437 5.48 22.749 4.713 23.07 3.924 C24 2 24 2 26 0 C26.99 0 27.98 0 29 0 C28.414 4.76 27.044 8.574 25.059 12.93 C24.771 13.565 24.484 14.2 24.188 14.855 C23.278 16.864 22.358 18.87 21.438 20.875 C20.815 22.244 20.193 23.614 19.572 24.984 C18.056 28.326 16.53 31.664 15 35 C10.962 30.088 8.736 24.176 6.165 18.418 C5.248 16.371 4.318 14.33 3.387 12.289 C2.804 10.993 2.222 9.696 1.641 8.398 C1.11 7.219 0.579 6.04 0.032 4.826 C-0.308 3.893 -0.649 2.961 -1 2 C-0.67 1.34 -0.34 0.68 0 0 Z " fill="#81007F" transform="translate(748,819)"/>
<path d="M0 0 C0.66 0 1.32 0 2 0 C3.339 3.456 4.67 6.915 6 10.375 C6.382 11.36 6.763 12.345 7.156 13.359 C7.517 14.3 7.878 15.241 8.25 16.211 C8.585 17.08 8.92 17.95 9.266 18.845 C10 21 10 21 10 23 C4.06 23 -1.88 23 -8 23 C-6.583 14.779 -3.414 7.547 0 0 Z " fill="#FFFFFF" transform="translate(264,722)"/>
<path d="M0 0 C6.6 0 13.2 0 20 0 C20.33 1.32 20.66 2.64 21 4 C18.03 4 15.06 4 12 4 C12 13.9 12 23.8 12 34 C10.68 34 9.36 34 8 34 C8 24.1 8 14.2 8 4 C5.03 4 2.06 4 -1 4 C-0.67 2.68 -0.34 1.36 0 0 Z " fill="#81007F" transform="translate(613,819)"/>
<path d="M0 0 C6.6 0 13.2 0 20 0 C20.33 1.32 20.66 2.64 21 4 C18.03 4 15.06 4 12 4 C12 13.9 12 23.8 12 34 C10.68 34 9.36 34 8 34 C8 24.1 8 14.2 8 4 C5.03 4 2.06 4 -1 4 C-0.67 2.68 -0.34 1.36 0 0 Z " fill="#81007F" transform="translate(324,819)"/>
<path d="M0 0 C6.6 0 13.2 0 20 0 C20 1.32 20 2.64 20 4 C17.36 4 14.72 4 12 4 C12 13.57 12 23.14 12 33 C11.34 33.165 11.34 33.165 8 34 C7.67 24.43 7.34 14.86 7 5 C4.36 4.67 1.72 4.34 -1 4 C-0.67 2.68 -0.34 1.36 0 0 Z " fill="#81007F" transform="translate(679,819)"/>
<path d="M0 0 C6.6 0 13.2 0 20 0 C20 1.32 20 2.64 20 4 C17.36 4 14.72 4 12 4 C12 13.57 12 23.14 12 33 C11.34 33.165 11.34 33.165 8 34 C7.67 24.43 7.34 14.86 7 5 C4.36 4.67 1.72 4.34 -1 4 C-0.67 2.68 -0.34 1.36 0 0 Z " fill="#81007F" transform="translate(226,819)"/>
<path d="M0 0 C2.51 2.834 3.013 4.335 2.938 8.125 C2 11 2 11 0.375 12.938 C-3.146 14.513 -5.342 14.064 -9 13 C-11 10.75 -11 10.75 -12 8 C-11.748 4.466 -10.998 2.997 -9 0 C-5.41 -1.197 -3.617 -1.055 0 0 Z " fill="#FFFFFF" transform="translate(441,601)"/>
<path d="M0 0 C2 1.625 2 1.625 3 4 C3 7.562 3 7.562 2 11 C-0.662 13.366 -2.062 14.045 -5.625 13.875 C-8.239 12.912 -9.385 12.261 -11 10 C-11.875 7.625 -11.875 7.625 -12 5 C-9.021 -1.241 -6.615 -1.509 0 0 Z " fill="#FFFFFF" transform="translate(439,193)"/>
<path d="M0 0 C2 2 2 2 2.375 5.375 C2 9 2 9 0.375 11.438 C-2.717 13.472 -4.364 13.606 -8 13 C-10.375 11.438 -10.375 11.438 -12 9 C-12.731 3.045 -12.731 3.045 -10.688 0.125 C-6.618 -2.588 -4.312 -1.743 0 0 Z " fill="#FFFFFF" transform="translate(482,598)"/>
<path d="M0 0 C2.375 1.625 2.375 1.625 4 4 C4.494 7.385 4.378 9.265 2.812 12.312 C0.484 14.48 -0.822 14.924 -4 15 C-6.283 13.858 -8.19 12.81 -10 11 C-10.364 7.142 -10.56 4.84 -8.375 1.562 C-5.283 -0.472 -3.636 -0.606 0 0 Z " fill="#FFFFFF" transform="translate(401,596)"/>
<path d="M0 0 C1.665 0.199 3.332 0.387 5 0.562 C5.382 0.604 5.382 0.604 7.312 0.816 C7.869 0.877 8.426 0.938 9 1 C9.33 0.34 9.66 -0.32 10 -1 C11.32 -1 12.64 -1 14 -1 C13.169 2.116 12.49 4.456 10.312 6.875 C7.05 8.462 4.588 8.315 1 8 C-0.672 7.347 -2.339 6.681 -4 6 C-7.312 5.875 -7.312 5.875 -10 6 C-10.33 6.66 -10.66 7.32 -11 8 C-12.32 8 -13.64 8 -15 8 C-14.159 4.562 -13.522 2.476 -10.875 0.062 C-7.016 -1.364 -3.926 -0.703 0 0 Z " fill="#81007F" transform="translate(269,688)"/>
<path d="M0 0 C3.338 1.161 4.336 1.837 5.875 5 C6.375 8 6.375 8 5.875 11 C3.75 13.438 3.75 13.438 0.875 15 C-2.309 14.936 -4.274 14.51 -7 12.875 C-8.848 9.795 -8.616 7.496 -8.125 4 C-5.459 0.864 -4.137 0 0 0 Z " fill="#FFFFFF" transform="translate(397.125,196)"/>
<path d="M0 0 C2.375 1.625 2.375 1.625 4 4 C4.612 7.672 4.487 9.288 2.375 12.375 C-0.712 14.487 -2.328 14.612 -6 14 C-8.375 12.375 -8.375 12.375 -10 10 C-10.612 6.328 -10.487 4.712 -8.375 1.625 C-5.288 -0.487 -3.672 -0.612 0 0 Z " fill="#FFFFFF" transform="translate(478,196)"/>
<path d="M0 0 C7.212 -0.481 7.212 -0.481 10.562 1.562 C12 4 12 4 12 7.625 C11 11 11 11 9.375 12.438 C6.209 13.187 3.24 13.125 0 13 C0 8.71 0 4.42 0 0 Z " fill="#FFFFFF" transform="translate(454,823)"/>
<path d="M0 0 C3.986 -0.313 6.418 -0.303 10 1.562 C12 4 12 4 12 7.625 C11 11 11 11 8 13 C5.957 13.195 5.957 13.195 3.812 13.125 C3.183 13.104 3.183 13.104 0 13 C0 8.71 0 4.42 0 0 Z " fill="#FFFFFF" transform="translate(580,836)"/>
<path d="M0 0 C7.281 -0.485 7.281 -0.485 10.5 1.688 C12 4 12 4 12.562 6.5 C12 9 12 9 9.938 11.312 C6.378 13.358 4.041 13.317 0 13 C0 8.71 0 4.42 0 0 Z " fill="#FFFFFF" transform="translate(256,823)"/>
<path d="M0 0 C0.99 0 1.98 0 3 0 C3 11.22 3 22.44 3 34 C1.68 34 0.36 34 -1 34 C-1.025 29.319 -1.043 24.637 -1.055 19.956 C-1.06 18.362 -1.067 16.768 -1.075 15.175 C-1.088 12.888 -1.093 10.602 -1.098 8.316 C-1.103 7.6 -1.108 6.883 -1.113 6.145 C-1.113 4.429 -1.062 2.714 -1 1 C-0.67 0.67 -0.34 0.34 0 0 Z " fill="#81007F" transform="translate(604,819)"/>
<path d="M0 0 C1.32 0.33 2.64 0.66 4 1 C4 11.56 4 22.12 4 33 C3.34 33.165 3.34 33.165 0 34 C0 22.78 0 11.56 0 0 Z " fill="#81007F" transform="translate(783,819)"/>
<path d="M0 0 C6.391 -0.362 6.391 -0.362 9 1.188 C10 3 10 3 9.875 5.562 C9 8 9 8 6 10 C2.812 10.125 2.812 10.125 0 10 C0 6.7 0 3.4 0 0 Z " fill="#FFFFFF" transform="translate(580,823)"/>
<path d="M0 0 C0.66 0 1.32 0 2 0 C2.671 1.456 3.337 2.915 4 4.375 C4.186 4.781 4.186 4.781 5.125 6.836 C6 9 6 9 6 11 C2.7 11 -0.6 11 -4 11 C-1.125 2.25 -1.125 2.25 0 0 Z " fill="#FFFFFF" transform="translate(290,828)"/>
<path d="M0 0 C0.66 0 1.32 0 2 0 C2.671 1.456 3.337 2.915 4 4.375 C4.186 4.781 4.186 4.781 5.125 6.836 C6 9 6 9 6 11 C2.7 11 -0.6 11 -4 11 C-2.68 7.37 -1.36 3.74 0 0 Z " fill="#FFFFFF" transform="translate(838,828)"/>
<path d="M0 0 C0.66 0 1.32 0 2 0 C2.671 1.456 3.337 2.915 4 4.375 C4.186 4.781 4.186 4.781 5.125 6.836 C6 9 6 9 6 11 C2.7 11 -0.6 11 -4 11 C-2.68 7.37 -1.36 3.74 0 0 Z " fill="#FFFFFF" transform="translate(554,828)"/>
<path d="M0 0 C3.585 3.183 4.461 6.531 6 11 C2.7 11 -0.6 11 -4 11 C-1.125 2.25 -1.125 2.25 0 0 Z " fill="#FFFFFF" transform="translate(645,828)"/>
<path d="M0 0 C1.32 0.33 2.64 0.66 4 1 C3.574 2.441 3.134 3.878 2.688 5.312 C2.444 6.113 2.2 6.914 1.949 7.738 C0.958 10.1 -0.081 11.339 -2 13 C-3.188 9.571 -2.802 7.622 -1.562 4.25 C-1.275 3.451 -0.988 2.652 -0.691 1.828 C-0.463 1.225 -0.235 0.622 0 0 Z " fill="#81007F" transform="translate(480,848)"/>
</svg>
